<?xml version="1.0" encoding="utf-8"?>
<!-- Generator: Adobe Illustrator 25.2.3, SVG Export Plug-In . SVG Version: 6.00 Build 0)  -->
<svg version="1.1" id="Calque_1" xmlns="http://www.w3.org/2000/svg" xmlns:xlink="http://www.w3.org/1999/xlink" x="0px" y="0px"
	 viewBox="0 0 415.2 77.63" style="enable-background:new 0 0 415.2 77.63;" xml:space="preserve">
<style type="text/css">
	.st0{fill:#E95144;}
	.st1{fill:#FFFFFF;}
	.st2{fill:none;}
</style>
<path class="st0" d="M70.21,68.9H7.71c-2.96,0-5.37-2.4-5.37-5.37V10.44c0-2.96,2.4-5.37,5.37-5.37h62.5c2.96,0,5.37,2.4,5.37,5.37
	v53.09C75.58,66.5,73.18,68.9,70.21,68.9z"/>
<g>
	<g>
		<path class="st1" d="M42.75,49.64l-1.59,5.72l-0.51,1.6l-6.22-0.16c-4.4,0-7.66-0.53-9.78-1.58c-4.58-1.95-7.86-5.11-9.86-9.5
			c-0.33-0.74-0.61-1.48-0.83-2.25c-0.46-1.58-0.69-3.23-0.69-4.94c0-2.59,0.51-5.02,1.53-7.28c0.45,0.07,0.91,0.18,1.37,0.33
			c2.44,0.79,4.26,2.5,5.03,4.44c-0.22,0.85-0.33,1.71-0.33,2.58c0,0.59,0.06,1.19,0.18,1.8c0.31,1.56,1.03,3.16,2.15,4.78
			c1.27,1.78,3.27,3.11,6.02,4.01c1.02,0.32,2.49,0.48,4.42,0.48L42.75,49.64z"/>
		<path class="st1" d="M33.65,27.3l15.97-0.2l1.78-6.92H37.83c-5.12,0-8.05,0.11-8.79,0.33c-2.08,0.24-4.4,1.08-6.96,2.52
			c-1.23,0.74-2.54,1.81-3.92,3.22c-0.14-0.17-0.28-0.35-0.41-0.55c-0.57-0.82-1.15-1.96-1.31-2.6c-0.01-0.04-0.05-0.18-0.12-0.37
			c-0.31-2.24-2.23-3.97-4.56-3.97c-0.02,0-0.04,0-0.06,0c-0.02,0-0.04,0-0.06,0c-2.55,0-4.61,2.07-4.61,4.61
			c0,2.54,2.06,4.61,4.61,4.61h0.04c0,0,0,0,0.01,0c0.05,0.01,0.1,0.01,0.15,0.02c1.16,0.18,1.93,0.62,3.13,1.08
			c0.27,0.1,0.53,0.22,0.79,0.33c3.21,1.45,5.57,3.79,5.57,3.79c0.23,0.23,0.45,0.47,0.66,0.69c1.32,1.46,2.05,2.72,2.26,3.09
			c0.69,1.24,1.11,2.37,1.36,3.23c0.04,0.04,0.07,0.08,0.1,0.12c0.95,3.91,4.48,6.82,8.68,6.82c4.94,0,8.94-4,8.94-8.94
			c0-4.67-3.59-8.51-8.16-8.9c0,0,0.01-0.01,0.02-0.01c-0.9-0.08-2.06-0.06-3.35,0.28c-0.56,0.14-0.8,0.26-1.55,0.49
			c-0.97,0.3-2.41,0.68-3.32,0.78c-0.93,0.1-1.81-0.04-2.63-0.31c0.42-0.4,0.86-0.75,1.32-1.03C27.51,28.04,30.18,27.3,33.65,27.3z
			 M11.42,24.76c-0.76,0-1.39-0.62-1.39-1.39c0-0.76,0.62-1.38,1.39-1.38c0.76,0,1.39,0.62,1.39,1.38
			C12.81,24.14,12.19,24.76,11.42,24.76z M34.55,33.62c2.72,0,4.92,2.2,4.92,4.92s-2.2,4.92-4.92,4.92s-4.92-2.2-4.92-4.92
			S31.84,33.62,34.55,33.62z"/>
		<path class="st2" d="M21.97,33.9c-0.34,0.7-0.6,1.41-0.78,2.13c-0.77-1.94-2.6-3.65-5.03-4.44c-0.46-0.15-0.92-0.26-1.37-0.33
			c0.28-0.62,0.6-1.23,0.96-1.83c3.21,1.45,5.57,3.79,5.57,3.79C21.55,33.44,21.77,33.67,21.97,33.9z"/>
	</g>
	<path class="st1" d="M71.96,49.81l-1,3.16c-0.7,2.25-2.51,3.74-4.53,3.74H51.29l-8.62,0.09l10.83-36.69l8.88-0.1l-9,29.77
		L71.96,49.81z"/>
	<path class="st2" d="M34.55,33.62c-2.72,0-4.92,2.2-4.92,4.92s2.2,4.92,4.92,4.92s4.92-2.2,4.92-4.92S37.27,33.62,34.55,33.62z
		 M34.34,40.92c-1.33,0-2.4-1.08-2.4-2.4c0-1.33,1.07-2.4,2.4-2.4c1.32,0,2.4,1.07,2.4,2.4C36.74,39.84,35.67,40.92,34.34,40.92z"/>
	<path class="st2" d="M34.55,33.62c-2.72,0-4.92,2.2-4.92,4.92s2.2,4.92,4.92,4.92s4.92-2.2,4.92-4.92S37.27,33.62,34.55,33.62z
		 M34.34,40.92c-1.33,0-2.4-1.08-2.4-2.4c0-1.33,1.07-2.4,2.4-2.4c1.32,0,2.4,1.07,2.4,2.4C36.74,39.84,35.67,40.92,34.34,40.92z"/>
	<g>
		
			<ellipse transform="matrix(0.2298 -0.9732 0.9732 0.2298 -11.0377 63.0976)" class="st1" cx="34.34" cy="38.52" rx="2.4" ry="2.4"/>
	</g>
	<path class="st2" d="M12.81,23.37c0,0.77-0.62,1.39-1.39,1.39c-0.76,0-1.39-0.62-1.39-1.39c0-0.76,0.62-1.38,1.39-1.38
		C12.19,21.99,12.81,22.61,12.81,23.37z"/>
</g>
<g>
	<path class="st1" d="M115.77,50.53c-0.42,2.25-0.79,4.55-1.1,6.88c-2.2,0.39-4.21,0.66-6.04,0.81c-1.83,0.15-3.4,0.23-4.71,0.23
		c-2.89,0-5.65-0.41-8.28-1.21c-2.63-0.81-5-2.09-7.11-3.83c-2.11-1.74-3.64-3.86-4.58-6.35s-1.42-5.2-1.42-8.15
		c0-3.2,0.57-6.16,1.71-8.88s2.77-5.01,4.9-6.88c2.13-1.87,4.65-3.26,7.56-4.18c2.91-0.92,5.95-1.37,9.11-1.37
		c3.12,0,6.53,0.36,10.23,1.07c0.06,1.72,0.12,2.93,0.17,3.64l0.2,3.09c-2.18-0.58-3.99-0.97-5.44-1.19
		c-1.45-0.21-2.82-0.32-4.13-0.32c-2.06,0-4.04,0.31-5.94,0.94c-1.9,0.63-3.58,1.62-5.03,2.99c-1.46,1.37-2.57,3.02-3.35,4.96
		c-0.78,1.94-1.17,3.96-1.17,6.06c0,2.51,0.48,4.75,1.45,6.74c0.96,1.99,2.51,3.6,4.64,4.83c2.13,1.23,4.77,1.85,7.91,1.85
		C108.25,52.27,111.73,51.69,115.77,50.53z"/>
	<path class="st1" d="M135.3,27.66c2.22,0,4.34,0.33,6.38,1c2.03,0.66,3.76,1.65,5.18,2.95c1.42,1.3,2.48,2.89,3.19,4.77
		c0.71,1.88,1.07,3.86,1.07,5.94c0,2.2-0.38,4.32-1.13,6.36c-0.75,2.04-1.84,3.81-3.27,5.31s-3.2,2.61-5.33,3.35
		c-2.13,0.74-4.4,1.11-6.81,1.11c-2.24,0-4.36-0.33-6.38-1c-2.01-0.67-3.73-1.66-5.16-2.99c-1.43-1.33-2.51-2.95-3.25-4.86
		c-0.74-1.91-1.11-3.9-1.11-5.98c0-2.12,0.34-4.14,1.01-6.07c0.67-1.93,1.73-3.64,3.17-5.15s3.27-2.67,5.51-3.5
		C130.6,28.08,132.91,27.66,135.3,27.66z M135.3,33.62c-1.67,0-3.16,0.41-4.48,1.23c-1.32,0.82-2.3,2.04-2.94,3.66
		c-0.64,1.62-0.96,3.38-0.96,5.29c0,1.68,0.26,3.17,0.79,4.48c0.53,1.31,1.39,2.37,2.59,3.18c1.2,0.81,2.63,1.21,4.28,1.21
		c1.69,0,3.17-0.42,4.45-1.26c1.28-0.84,2.24-2.07,2.88-3.7c0.64-1.63,0.97-3.43,0.97-5.39c0-1.6-0.25-3.05-0.75-4.37
		c-0.5-1.31-1.34-2.36-2.52-3.15C138.43,34.01,136.99,33.62,135.3,33.62z"/>
	<path class="st1" d="M154.23,57.76c0.27-3.28,0.55-8.17,0.85-14.69s0.45-11.42,0.45-14.72c1.64,0.04,2.97,0.06,3.99,0.06
		c1.17,0,2.45-0.02,3.82-0.06l-0.22,4.65c0.62-0.91,1.18-1.64,1.69-2.21c0.51-0.57,1.17-1.09,1.98-1.58
		c0.81-0.48,1.76-0.86,2.85-1.14c1.09-0.28,2.21-0.42,3.37-0.42c0.87,0,1.71,0.08,2.51,0.25c0.81,0.16,1.55,0.4,2.21,0.69
		c0.67,0.3,1.23,0.64,1.71,1.03c0.47,0.39,0.87,0.81,1.2,1.29c0.33,0.47,0.68,1.17,1.07,2.1c0.42-0.67,0.81-1.24,1.17-1.69
		c0.36-0.45,0.83-0.92,1.43-1.4c0.6-0.48,1.26-0.89,1.99-1.21c0.73-0.33,1.56-0.58,2.47-0.77c0.92-0.18,1.86-0.27,2.85-0.27
		c1.68,0,3.26,0.27,4.74,0.82c1.48,0.55,2.65,1.42,3.5,2.6c0.85,1.19,1.27,2.66,1.27,4.41c0,0.93-0.07,2.28-0.2,4.08
		c-0.13,1.79-0.3,4.72-0.49,8.77c-0.19,4.06-0.29,7.19-0.31,9.41c-1.41-0.04-2.65-0.06-3.73-0.06c-1.27,0-2.77,0.02-4.49,0.06
		c0.17-2.49,0.34-5.09,0.49-7.81l0.35-6.62c0.1-1.68,0.15-3.09,0.15-4.25c0-1.38-0.22-2.42-0.65-3.13
		c-0.43-0.71-0.98-1.21-1.65-1.51c-0.67-0.3-1.41-0.45-2.24-0.45c-0.87,0-1.65,0.17-2.36,0.49c-0.7,0.33-1.36,0.86-1.97,1.6
		s-1.07,1.59-1.4,2.57c-0.33,0.98-0.57,2.35-0.72,4.11s-0.28,4.08-0.37,6.95l-0.2,8.04c-1.6-0.04-2.93-0.06-4-0.06
		s-2.48,0.02-4.26,0.06c0.13-1.48,0.33-4.52,0.58-9.11c0.25-4.59,0.37-7.68,0.37-9.28c0-0.85-0.07-1.57-0.2-2.15
		c-0.13-0.59-0.41-1.15-0.82-1.68c-0.41-0.53-0.9-0.92-1.46-1.17c-0.56-0.25-1.2-0.38-1.94-0.38c-1.35,0-2.53,0.44-3.55,1.33
		c-1.02,0.89-1.77,2.07-2.24,3.56c-0.47,1.48-0.81,4.37-1.02,8.66s-0.31,7.7-0.31,10.22c-1.77-0.04-3.11-0.06-4.01-0.06
		C157.45,57.7,156.03,57.72,154.23,57.76z"/>
	<path class="st1" d="M204.46,71.03c0.48-5.38,0.92-12.35,1.3-20.9c0.39-8.56,0.58-15.51,0.58-20.84c3.66-0.66,6.49-1.09,8.5-1.3
		c2-0.21,4-0.32,5.98-0.32c2.6,0,4.99,0.31,7.15,0.93s3.9,1.65,5.2,3.09c1.3,1.45,2.26,3.12,2.89,5.03s0.94,3.9,0.94,5.98
		c0,2.1-0.3,4.12-0.9,6.07c-0.6,1.95-1.51,3.7-2.75,5.25c-1.23,1.55-2.66,2.68-4.29,3.38c-1.63,0.7-3.4,1.06-5.33,1.06
		c-1.14,0-2.26-0.14-3.37-0.41c-1.11-0.27-2.08-0.62-2.92-1.07c-0.84-0.44-1.53-0.89-2.07-1.34c-0.54-0.45-1.22-1.13-2.05-2.04
		l-0.44,12.58l-0.03,1.97c-0.02,0.25-0.03,1.21-0.03,2.89c-1.78-0.02-3.15-0.03-4.11-0.03L204.46,71.03z M214.32,34.6
		c-0.14,1.04-0.23,1.94-0.29,2.69l-0.18,3.21c-0.08,1.38-0.12,2.4-0.12,3.06c0,1.17,0.12,2.3,0.36,3.38
		c0.24,1.08,0.72,2.07,1.45,2.97c0.72,0.9,1.58,1.59,2.58,2.06c0.99,0.47,2.02,0.71,3.09,0.71c1.47,0,2.81-0.42,4.01-1.26
		s2.14-2.06,2.8-3.68c0.66-1.62,0.98-3.34,0.98-5.17c0-2.02-0.36-3.73-1.09-5.12c-0.72-1.4-1.69-2.41-2.91-3.05
		c-1.22-0.64-2.6-0.95-4.14-0.95C218.86,33.44,216.67,33.83,214.32,34.6z"/>
	<path class="st1" d="M242.32,34.8c0.27-1.39,0.44-2.36,0.51-2.92s0.19-1.41,0.36-2.54c2.62-0.62,4.93-1.05,6.94-1.3
		c2-0.25,3.94-0.38,5.81-0.38c2.12,0,4.07,0.25,5.84,0.74c1.77,0.49,3.16,1.28,4.16,2.36c1,1.08,1.5,2.63,1.5,4.65
		c0,1.1-0.15,3.9-0.46,8.4c-0.31,4.5-0.49,9.15-0.55,13.95c-1.47-0.04-2.82-0.06-4.05-0.06c-1.18,0-2.56,0.02-4.14,0.06
		c0.25-2.33,0.46-5.03,0.61-8.09l0.38-7.2c-0.73,0.48-1.29,0.82-1.68,1.01c-0.39,0.19-0.82,0.37-1.3,0.53
		c-0.48,0.16-1.33,0.42-2.55,0.75c-1.21,0.34-2.19,0.63-2.92,0.88c-0.73,0.25-1.39,0.54-1.98,0.85c-0.59,0.32-1.09,0.67-1.49,1.07
		c-0.41,0.4-0.7,0.81-0.88,1.24s-0.27,0.9-0.27,1.4c0,0.81,0.24,1.51,0.71,2.1c0.47,0.59,1.06,1,1.78,1.23
		c0.71,0.23,1.55,0.35,2.51,0.35c0.62,0,1.27-0.05,1.95-0.14c0.68-0.1,1.6-0.34,2.76-0.72c-0.4,1.1-0.88,2.74-1.42,4.92
		c-1.37,0.23-2.46,0.38-3.27,0.43c-0.81,0.06-1.56,0.09-2.25,0.09c-2.43,0-4.42-0.33-5.99-0.98c-1.56-0.65-2.71-1.7-3.46-3.12
		s-1.11-2.86-1.11-4.31c0-0.83,0.14-1.65,0.43-2.46c0.29-0.81,0.71-1.55,1.27-2.23c0.56-0.67,1.28-1.33,2.17-1.95
		c0.89-0.63,2.17-1.23,3.85-1.82s3.9-1.18,6.65-1.78c0.73-0.15,1.5-0.34,2.29-0.56c0.79-0.22,1.42-0.44,1.89-0.65
		c0.47-0.21,0.88-0.49,1.23-0.82c0.35-0.34,0.6-0.69,0.77-1.06c0.16-0.37,0.25-0.74,0.25-1.13c0-0.75-0.25-1.39-0.74-1.91
		c-0.49-0.52-1.13-0.88-1.91-1.08c-0.78-0.2-1.64-0.3-2.59-0.3C250.44,32.29,246.56,33.13,242.32,34.8z"/>
	<path class="st1" d="M294.81,51.08c-0.1,0.79-0.24,1.69-0.43,2.69c-0.19,1-0.4,2.25-0.61,3.73c-2.76,0.64-5.47,0.95-8.15,0.95
		c-1.56,0-3.06-0.14-4.51-0.43s-2.79-0.8-4.03-1.55c-1.24-0.74-2.34-1.72-3.28-2.93c-0.95-1.21-1.65-2.68-2.12-4.41
		c-0.47-1.72-0.71-3.5-0.71-5.33c0-2.43,0.39-4.76,1.17-7c0.78-2.24,1.92-4.06,3.43-5.48c1.5-1.42,3.17-2.38,5.02-2.89
		s3.89-0.77,6.14-0.77c1.25,0,2.54,0.07,3.87,0.22s2.9,0.44,4.71,0.88l0.43,6.33c-2.87-0.98-5.37-1.47-7.5-1.47
		c-1.31,0-2.54,0.22-3.71,0.67c-1.17,0.44-2.17,1.14-3,2.1s-1.43,2.06-1.79,3.31c-0.36,1.25-0.53,2.53-0.53,3.84
		c0,1.83,0.28,3.42,0.85,4.76c0.57,1.34,1.54,2.38,2.93,3.11c1.38,0.73,2.96,1.1,4.73,1.1c0.87,0,1.92-0.11,3.16-0.33
		C292.11,51.94,293.42,51.58,294.81,51.08z"/>
	<path class="st1" d="M316.85,51.72c-0.23,1.06-0.6,3.03-1.1,5.9c-1.62,0.37-2.89,0.6-3.82,0.69c-0.93,0.1-1.79,0.14-2.6,0.14
		c-1.43,0-2.7-0.14-3.83-0.41c-1.13-0.27-2.06-0.75-2.79-1.43s-1.23-1.48-1.49-2.4c-0.26-0.92-0.39-1.87-0.39-2.85
		c0-0.25,0.01-0.59,0.03-1.01c0.02-0.42,0.1-1.79,0.23-4.11l0.66-12.03h-4.16c0.1-1.16,0.18-3.02,0.26-5.58h4.35
		c0.12-1.12,0.23-3.02,0.34-5.7l3.42-0.67c0.71-0.13,2.09-0.45,4.14-0.95c-0.14,2.6-0.22,5.04-0.24,7.31h7.35
		c-0.13,2.6-0.2,4.46-0.2,5.58h-7.37c-0.41,7.84-0.61,12.38-0.61,13.62c0,1.2,0.13,2.12,0.39,2.78c0.26,0.66,0.68,1.13,1.26,1.42
		s1.2,0.43,1.85,0.43c0.48,0,0.99-0.04,1.52-0.12C314.59,52.28,315.52,52.06,316.85,51.72z"/>
	<path class="st0" d="M319.23,57.76c0.58-5.8,1.04-12.26,1.38-19.38s0.55-13.81,0.6-20.08c1.97,0.04,3.61,0.06,4.92,0.06
		c0.89,0,2.31-0.02,4.26-0.06c-0.25,3.47-0.49,7.42-0.71,11.85l-0.59,11.59c-0.18,3.32-0.3,6.61-0.38,9.89l4.98,0.06
		c4.67,0,7.74-0.02,9.21-0.04s2.92-0.08,4.34-0.16c-0.17,1.89-0.33,3.98-0.46,6.27c-5.07-0.04-9.41-0.06-13.01-0.06l-9.11,0.03
		L319.23,57.76z"/>
	<path class="st0" d="M351.05,34.8c0.27-1.39,0.44-2.36,0.51-2.92s0.19-1.41,0.36-2.54c2.62-0.62,4.93-1.05,6.94-1.3
		c2-0.25,3.94-0.38,5.81-0.38c2.12,0,4.07,0.25,5.84,0.74c1.77,0.49,3.16,1.28,4.16,2.36c1,1.08,1.5,2.63,1.5,4.65
		c0,1.1-0.15,3.9-0.46,8.4c-0.31,4.5-0.49,9.15-0.55,13.95c-1.47-0.04-2.82-0.06-4.05-0.06c-1.18,0-2.56,0.02-4.14,0.06
		c0.25-2.33,0.46-5.03,0.61-8.09l0.38-7.2c-0.73,0.48-1.29,0.82-1.68,1.01c-0.39,0.19-0.82,0.37-1.3,0.53
		c-0.48,0.16-1.33,0.42-2.55,0.75c-1.21,0.34-2.19,0.63-2.92,0.88c-0.73,0.25-1.39,0.54-1.98,0.85c-0.59,0.32-1.09,0.67-1.49,1.07
		c-0.41,0.4-0.7,0.81-0.88,1.24s-0.27,0.9-0.27,1.4c0,0.81,0.24,1.51,0.71,2.1s1.06,1,1.78,1.23c0.71,0.23,1.55,0.35,2.52,0.35
		c0.62,0,1.27-0.05,1.95-0.14c0.68-0.1,1.6-0.34,2.76-0.72c-0.4,1.1-0.88,2.74-1.42,4.92c-1.37,0.23-2.46,0.38-3.27,0.43
		c-0.81,0.06-1.56,0.09-2.25,0.09c-2.43,0-4.42-0.33-5.98-0.98c-1.56-0.65-2.71-1.7-3.46-3.12c-0.74-1.43-1.11-2.86-1.11-4.31
		c0-0.83,0.14-1.65,0.43-2.46c0.29-0.81,0.71-1.55,1.27-2.23c0.56-0.67,1.28-1.33,2.17-1.95c0.89-0.63,2.17-1.23,3.85-1.82
		s3.9-1.18,6.65-1.78c0.73-0.15,1.49-0.34,2.29-0.56c0.79-0.22,1.42-0.44,1.9-0.65c0.47-0.21,0.88-0.49,1.23-0.82
		c0.35-0.34,0.6-0.69,0.77-1.06c0.16-0.37,0.25-0.74,0.25-1.13c0-0.75-0.25-1.39-0.74-1.91c-0.49-0.52-1.13-0.88-1.91-1.08
		c-0.78-0.2-1.65-0.3-2.59-0.3C359.17,32.29,355.3,33.13,351.05,34.8z"/>
	<path class="st0" d="M380.53,57.76c0.35-3.66,0.73-10.03,1.15-19.1s0.64-15.86,0.66-20.37c1.71,0.04,3.19,0.06,4.45,0.06
		c1.25,0,2.59-0.02,4.01-0.06c-0.33,2.72-0.58,6.15-0.78,10.29c1.89-0.37,3.39-0.61,4.51-0.74c1.12-0.13,2.23-0.19,3.32-0.19
		c3.03,0,5.57,0.48,7.65,1.43c2.07,0.95,3.73,2.53,4.99,4.74c1.25,2.21,1.88,4.88,1.88,8.02c0,2.2-0.31,4.33-0.94,6.4
		c-0.63,2.07-1.56,3.91-2.8,5.52s-2.75,2.79-4.52,3.54s-3.7,1.13-5.78,1.13c-1,0-1.93-0.09-2.79-0.27
		c-0.86-0.18-1.65-0.45-2.37-0.79c-0.72-0.35-1.37-0.75-1.93-1.21c-0.57-0.46-1.04-0.92-1.42-1.39c-0.38-0.46-0.81-1.11-1.31-1.94
		l-0.13,4.91c-1.58-0.04-2.83-0.06-3.73-0.06C383.94,57.7,382.57,57.72,380.53,57.76z M389.48,34.49l-0.23,4.94
		c-0.06,1.06-0.09,2.09-0.09,3.09c0,2.39,0.25,4.28,0.74,5.65c0.49,1.38,1.32,2.44,2.49,3.2s2.49,1.13,3.95,1.13
		c1.59,0,2.98-0.43,4.15-1.29c1.17-0.86,2.07-2.12,2.69-3.77c0.62-1.66,0.94-3.4,0.94-5.23c0-2.64-0.7-4.76-2.1-6.36
		c-1.4-1.6-3.47-2.4-6.2-2.4c-0.88,0-1.81,0.07-2.77,0.22C392.09,33.81,390.9,34.08,389.48,34.49z"/>
</g>
</svg>
